<svg viewBox="0 0 24 24" fill="none" xmlns="http://www.w3.org/2000/svg">
  <!-- Chart background -->
  <rect x="3" y="3" width="18" height="18" rx="2" fill="currentColor" opacity="0.1" stroke="currentColor" stroke-width="1.5"/>
  
  <!-- Chart bars -->
  <rect x="5" y="15" width="2.5" height="4" rx="1" fill="currentColor" opacity="0.6"/>
  <rect x="8.5" y="12" width="2.5" height="7" rx="1" fill="currentColor" opacity="0.8"/>
  <rect x="12" y="9" width="2.5" height="10" rx="1" fill="currentColor"/>
  <rect x="15.5" y="13" width="2.5" height="6" rx="1" fill="currentColor" opacity="0.7"/>
  
  <!-- Trend line -->
  <path d="M6 16L10 13L13.5 10L17 14" stroke="currentColor" stroke-width="2" stroke-linecap="round" stroke-linejoin="round" opacity="0.8" fill="none"/>
  
  <!-- Data points on trend line -->
  <circle cx="6" cy="16" r="1.5" fill="currentColor"/>
  <circle cx="10" cy="13" r="1.5" fill="currentColor"/>
  <circle cx="13.5" cy="10" r="1.5" fill="currentColor"/>
  <circle cx="17" cy="14" r="1.5" fill="currentColor"/>
  
  <!-- Central focus star -->
  <path d="M12 6L12.5 7.5L14 8L12.5 8.5L12 10L11.5 8.5L10 8L11.5 7.5Z" fill="currentColor"/>
</svg>